<svg width="78" height="51" viewBox="0 0 78 51" fill="none" xmlns="http://www.w3.org/2000/svg">
<mask id="mask0" mask-type="alpha" maskUnits="userSpaceOnUse" x="0" y="0" width="78" height="51">
<path fill-rule="evenodd" clip-rule="evenodd" d="M0 0H77.6727V50.7829H0V0Z" fill="white"/>
</mask>
<g mask="url(#mask0)">
<path fill-rule="evenodd" clip-rule="evenodd" d="M22.0898 24.112C11.4148 24.112 6.19276 28.058 6.19276 35.313C6.19276 41.396 9.81976 45.451 15.5848 45.451C22.4128 45.451 26.4568 40.645 26.4568 31.581V24.112H22.0898ZM58.3568 42.886H50.4648L67.8538 24.112H31.7948V31.581C31.7948 44.064 26.6768 50.783 15.7928 50.783C5.86876 50.783 -0.000244141 44.81 -0.000244141 35.313C-0.000244141 24.539 7.47476 18.775 22.1938 18.775H26.4568V0H31.7948V18.775H67.8538L50.4648 0H58.3568L77.6728 21.443L58.3568 42.886Z" fill="#2E2013"/>
</g>
</svg>
