<?xml version="1.0" encoding="UTF-8"?>
<svg width="64px" height="70px" viewBox="0 0 64 70" version="1.1" xmlns="http://www.w3.org/2000/svg" xmlns:xlink="http://www.w3.org/1999/xlink">
    <!-- Generator: Sketch 63.1 (92452) - https://sketch.com -->
    <title>Group 3</title>
    <desc>Created with Sketch.</desc>
    <defs>
        <polygon id="path-1" points="0 0 64 0 64 70 0 70"></polygon>
    </defs>
    <g id="Welcome" stroke="none" stroke-width="1" fill="none" fill-rule="evenodd">
        <g id="Desktop-main" transform="translate(-734.000000, -1084.000000)">
            <g id="Group-3" transform="translate(734.000000, 1084.000000)">
                <mask id="mask-2" fill="white">
                    <use xlink:href="#path-1"></use>
                </mask>
                <g id="Clip-2"></g>
                <path d="M64,48.2480869 C64,49.6818139 63.5453456,51.2914502 62.8162845,52.4553614 C61.4550117,54.8731223 59.0902709,56.5740198 56.1726812,56.5740198 C54.8114084,56.5740198 53.4407196,56.2155881 51.9825974,55.4114313 C45.2502154,51.6498819 51.0759789,46.2800189 43.247315,41.801606 L32.414973,35.6275862 L32.414973,47.9809164 C32.414973,56.9284837 39.9651947,54.6945678 39.9651947,62.2110534 C39.9651947,67.4023618 36.0522079,70 32.0490973,70 C27.9477921,70 24.0348053,67.4023618 24.0348053,62.2110534 C24.0348053,54.6945678 31.5957881,56.9284837 31.5957881,47.9809164 L31.5957881,35.6275862 L20.7607558,41.801606 C12.933437,46.2800189 18.671767,51.6498819 12.0174026,55.4114313 C10.5673511,56.2155881 9.19800752,56.5740198 7.83673469,56.5740198 C4.919145,56.5740198 2.55305912,54.8731223 1.19313142,52.4553614 C0.464070283,51.2914502 0,49.6818139 0,48.2480869 C0,45.8290033 1.19313142,43.4152102 4.1013052,41.801606 C5.47064882,40.9974492 6.74314298,40.6390175 7.73988524,40.6390175 C10.4691566,40.6390175 12.5689065,42.6070855 15.6640535,42.6070855 C16.9365476,42.6070855 18.5735724,42.1600378 20.3962252,41.1760038 L31.2312575,35.0019839 L20.3962252,28.8226736 C18.5735724,27.8386396 16.9365476,27.3929145 15.6640535,27.3929145 C12.4801278,27.3929145 10.4691566,29.3609825 7.73988524,29.3609825 C6.65301919,29.3609825 5.47064882,29.0025508 4.1013052,28.1970713 C1.19313142,26.5887577 0,24.1696741 0,21.7519131 C0,20.322154 0.464070283,18.7085498 1.19313142,17.5446386 C2.55305912,15.1308455 4.919145,13.429948 7.83673469,13.429948 C9.19800752,13.429948 10.5673511,13.7883798 12.0174026,14.5925366 C18.7592005,18.3501181 12.933437,23.723949 20.7607558,28.1970713 L31.5957881,34.3724138 L31.5957881,22.0230515 C31.5957881,13.0715163 24.0348053,15.3107227 24.0348053,7.78894662 C24.0348053,2.59763817 27.9477921,0 32.0490973,0 C36.0522079,0 39.9651947,2.59763817 39.9651947,7.78894662 C39.9651947,15.3107227 32.414973,13.0715163 32.414973,22.0230515 L32.414973,34.3724138 L43.247315,28.1970713 C51.0759789,23.723949 45.337649,18.3501181 51.9825974,14.5925366 C53.4407196,13.7883798 54.8114084,13.429948 56.1726812,13.429948 C59.0902709,13.429948 61.4550117,15.1308455 62.8162845,17.5446386 C63.5453456,18.7085498 64,20.322154 64,21.7519131 C64,24.1696741 62.8162845,26.5887577 59.9081107,28.1970713 C58.537422,29.0025508 57.2662729,29.3609825 56.2614599,29.3609825 C53.5308434,29.3609825 51.4405095,27.3929145 48.3440173,27.3929145 C47.0728683,27.3929145 45.4264276,27.8386396 43.6131907,28.8226736 L32.7781584,35.0019839 L43.6131907,41.1760038 C45.4264276,42.1600378 47.0728683,42.6070855 48.3440173,42.6070855 C51.5292881,42.6070855 53.5308434,40.6390175 56.2614599,40.6390175 C57.3563967,40.6390175 58.537422,40.9974492 59.9081107,41.801606 C62.8162845,43.4152102 64,45.8290033 64,48.2480869" id="Fill-1" fill="#2E2014" mask="url(#mask-2)"></path>
            </g>
        </g>
    </g>
</svg>