<?xml version="1.0" encoding="UTF-8"?>
<svg width="21px" height="25px" viewBox="0 0 21 25" version="1.1" xmlns="http://www.w3.org/2000/svg" xmlns:xlink="http://www.w3.org/1999/xlink">
    <!-- Generator: Sketch 63.1 (92452) - https://sketch.com -->
    <title>Group 3</title>
    <desc>Created with Sketch.</desc>
    <defs>
        <polygon id="path-1" points="0 0 21 0 21 25 0 25"></polygon>
    </defs>
    <g id="Welcome" stroke="none" stroke-width="1" fill="none" fill-rule="evenodd">
        <g id="Mobile-main" transform="translate(-286.000000, -12.000000)">
            <g id="Group-3" transform="translate(286.000000, 12.000000)">
                <mask id="mask-2" fill="white">
                    <use xlink:href="#path-1"></use>
                </mask>
                <g id="Clip-2"></g>
                <path d="M19.6240196,19.7992636 C19.6240196,18.2878311 18.6120368,17.1458319 16.9105822,17.1458319 C15.2088806,17.1458319 14.1934407,18.2878311 14.1934407,19.7992636 C14.1934407,21.3124566 15.2088806,22.4547073 16.9105822,22.4547073 C18.6120368,22.4547073 19.6240196,21.3124566 19.6240196,19.7992636 L19.6240196,19.7992636 Z M12.8174602,19.7992636 C12.8174602,16.4811536 14.4482884,14.6005392 16.9105822,14.6005392 C19.372629,14.6005392 21,16.4811536 21,19.7992636 C21,23.1193856 19.372629,25 16.9105822,25 C14.4482884,25 12.8174602,23.1193856 12.8174602,19.7992636 L12.8174602,19.7992636 Z M10.8255977,19.7992636 C10.8255977,18.2878311 9.81361493,17.1458319 8.1121603,17.1458319 C6.41045873,17.1458319 5.39501876,18.2878311 5.39501876,19.7992636 C5.39501876,21.3124566 6.41045873,22.4547073 8.1121603,22.4547073 C9.81361493,22.4547073 10.8255977,21.3124566 10.8255977,19.7992636 L10.8255977,19.7992636 Z M4.01903832,19.7992636 C4.01903832,16.4811536 5.64986653,14.6005392 8.1121603,14.6005392 C10.5744541,14.6005392 12.2015781,16.4811536 12.2015781,19.7992636 C12.2015781,23.1193856 10.5744541,25 8.1121603,25 C5.64986653,25 4.01903832,23.1193856 4.01903832,19.7992636 L4.01903832,19.7992636 Z M6.84557674,5.19897595 C6.84557674,3.68754338 5.83038371,2.54378376 4.12868213,2.54378376 C2.42673362,2.54378376 1.41154059,3.68754338 1.41154059,5.19897595 C1.41154059,6.71040851 2.42673362,7.85416813 4.12868213,7.85416813 C5.83038371,7.85416813 6.84557674,6.71040851 6.84557674,5.19897595 L6.84557674,5.19897595 Z M0.0353132092,5.19897595 C0.0353132092,1.88086592 1.66614142,0 4.12868213,0 C6.59097591,0 8.21809993,1.88086592 8.21809993,5.19897595 C8.21809993,8.51708598 6.59097591,10.3977004 4.12868213,10.3977004 C1.66614142,10.3977004 0.0353132092,8.51708598 0.0353132092,5.19897595 L0.0353132092,5.19897595 Z M0,15.4490539 L21,2.13838787 L21,3.98127936 L0,17.2937058 L0,15.4490539 Z" id="Fill-1" fill="#2E2013" mask="url(#mask-2)"></path>
            </g>
        </g>
    </g>
</svg>