<?xml version="1.0" encoding="UTF-8"?>
<svg width="41px" height="39px" viewBox="0 0 41 39" version="1.1" xmlns="http://www.w3.org/2000/svg" xmlns:xlink="http://www.w3.org/1999/xlink">
    <!-- Generator: Sketch 63.1 (92452) - https://sketch.com -->
    <title>Group 6</title>
    <desc>Created with Sketch.</desc>
    <defs>
        <polygon id="path-1" points="0.000286046512 0.247561267 40.5423256 0.247561267 40.5423256 38.4179104 0.000286046512 38.4179104"></polygon>
    </defs>
    <g id="Welcome" stroke="none" stroke-width="1" fill="none" fill-rule="evenodd">
        <g id="Desktop-main" transform="translate(-121.000000, -2355.000000)">
            <g id="Group-8" transform="translate(121.000000, 2355.000000)">
                <g id="Group-6">
                    <path d="M30.6161029,21.2552852 C30.1660095,20.9837452 29.7448641,20.8512637 29.331189,20.8512637 C28.8614858,20.8512637 28.4767587,21.0081744 28.1359203,21.1472329 C27.8333679,21.2703185 27.5700353,21.3764916 27.2646815,21.3764916 C27.1507574,21.3764916 26.8332642,21.348304 26.3560905,21.0824016 L24.4996887,20.0009396 L26.3448848,18.9241755 C26.8332642,18.651696 27.1507574,18.6235084 27.2646815,18.6235084 C27.556962,18.6235084 27.8184271,18.7296815 28.1228471,18.8508879 C28.4683544,18.990886 28.860552,19.1487363 29.331189,19.1487363 C29.7336584,19.1487363 30.1772152,19.0087381 30.6011621,18.7541107 C31.4901432,18.2504933 32,17.4152025 32,16.461524 C32,15.9588462 31.84779,15.4101287 31.6096701,15.0211407 C30.8635609,13.6671991 29.3022411,13.1861317 27.8912637,13.9838391 C26.7875078,14.6218172 26.6558415,15.4871747 26.5596597,16.1195152 C26.4690807,16.7199098 26.4018469,17.1539979 25.6090475,17.6172132 L23.7582486,18.696796 L23.7582486,16.5357512 C23.7582486,15.6008644 24.0972193,15.3274453 24.565055,14.9487926 C25.0562357,14.5513483 25.7295082,14.0082683 25.7295082,12.7341915 C25.7295082,10.9395847 24.3633534,10 23.0130733,10 C21.6506537,10 20.2714256,10.9395847 20.2714256,12.7341915 C20.2714256,14.0082683 20.9456319,14.5522879 21.4368126,14.9497322 C21.9065159,15.3283849 22.2445528,15.601804 22.2445528,16.5357512 L22.2445528,18.696796 L20.3946877,17.6181528 C19.6056236,17.1568167 19.5458601,16.7480973 19.4534136,16.1298506 C19.3590994,15.4928122 19.2302345,14.6218172 18.1059348,13.9810204 C16.7164349,13.1927088 15.1327039,13.6794137 14.409006,14.9957719 C14.15221,15.4110683 14,15.9588462 14,16.461524 C14,17.4142629 14.5107906,18.2495537 15.3866985,18.7447148 C15.8377257,19.0162548 16.2579373,19.1487363 16.6697448,19.1487363 C17.1385142,19.1487363 17.5241751,18.9918256 17.8659473,18.8537067 C18.1703673,18.7296815 18.4327661,18.6235084 18.7381199,18.6235084 C18.8511102,18.6235084 19.1676696,18.651696 19.6467109,18.9175984 L21.5031127,20.0009396 L19.6597842,21.0758245 C19.1676696,21.348304 18.8511102,21.3764916 18.7381199,21.3764916 C18.4467732,21.3764916 18.1834405,21.2712581 17.8780867,21.1481725 C17.5325794,21.009114 17.139448,20.8512637 16.6697448,20.8512637 C16.269143,20.8512637 15.8255862,20.9912619 15.4016393,21.2468289 C14.5107906,21.7513859 14,22.5876163 14,23.5375364 C14,24.0411538 14.15221,24.5889317 14.3931314,24.9779198 C15.1392405,26.3346801 16.7070969,26.8129287 18.1106039,26.0171004 C19.2143598,25.3791224 19.34696,24.5137649 19.4422079,23.8814244 C19.5346545,23.2800902 19.6009546,22.8460021 20.3946877,22.3818472 L22.2445528,21.303204 L22.2445528,23.4670676 C22.2445528,24.3991356 21.9065159,24.6725547 21.4368126,25.0512074 C20.9456319,25.4486517 20.2714256,25.9926712 20.2714256,27.2658085 C20.2714256,29.0613549 21.6506537,30 23.0130733,30 C24.3633534,30 25.7295082,29.0613549 25.7295082,27.2658085 C25.7295082,25.9926712 25.0562357,25.4486517 24.565055,25.0512074 C24.0972193,24.6734943 23.7582486,24.3991356 23.7582486,23.4670676 L23.7582486,21.303204 L25.6081137,22.3818472 C26.3971778,22.8431833 26.4578751,23.2528422 26.5503216,23.8720286 C26.643702,24.5071878 26.7725669,25.3781828 27.8959328,26.0208588 C29.2882341,26.8072912 30.8719651,26.3224655 31.5947292,25.0032885 C31.84779,24.5898713 32,24.0411538 32,23.5375364 C32,22.5857371 31.491077,21.7504463 30.6161029,21.2552852" id="Fill-1" fill="#3A200D"></path>
                    <g id="Group-5">
                        <mask id="mask-2" fill="white">
                            <use xlink:href="#path-1"></use>
                        </mask>
                        <g id="Clip-4"></g>
                        <path d="M0.000286046512,19.4949344 C0.000286046512,7.90303269 9.05270465,0.247561267 22.5998674,0.247561267 C31.3795884,0.247561267 34.727286,2.45705963 35.8209372,2.45705963 C36.2604953,2.45705963 36.537007,1.97261915 36.7544023,0.73293877 L39.608193,0.73293877 L39.608193,12.431661 L36.0974488,12.431661 C34.5060767,6.50124747 30.2258674,3.69767703 23.6439372,3.69767703 C14.7555186,3.69767703 8.77619302,9.52033302 8.77619302,19.4949344 C8.77619302,29.9521022 14.6477744,34.9679821 23.1500302,34.9679821 C31.2127279,34.9679821 35.3308442,32.0023068 37.0280535,24.8303388 L40.5426116,24.8303388 L40.1583558,35.0738656 C34.727286,37.3395853 29.075007,38.4180979 22.7104721,38.4180979 C8.3356814,38.4180979 0.000286046512,31.462582 0.000286046512,19.4949344" id="Fill-3" fill="#3A200D" mask="url(#mask-2)"></path>
                    </g>
                </g>
            </g>
        </g>
    </g>
</svg>