<?xml version="1.0" encoding="UTF-8"?>
<svg width="586px" height="651px" viewBox="0 0 586 651" version="1.1" xmlns="http://www.w3.org/2000/svg" xmlns:xlink="http://www.w3.org/1999/xlink">
    <!-- Generator: Sketch 63.1 (92452) - https://sketch.com -->
    <title>Group 3</title>
    <desc>Created with Sketch.</desc>
    <defs>
        <polygon id="path-1" points="0 0 586 0 586 651 0 651"></polygon>
    </defs>
    <g id="Welcome" stroke="none" stroke-width="1" fill="none" fill-rule="evenodd">
        <g id="Desktop-subpage" transform="translate(-579.000000, -526.000000)">
            <g id="Group-3" transform="translate(579.000000, 526.000000)">
                <mask id="mask-2" fill="white">
                    <use xlink:href="#path-1"></use>
                </mask>
                <g id="Clip-2"></g>
                <path d="M586,448.707208 C586,462.040869 581.8493,477.010487 575.173694,487.834861 C562.709277,510.320038 541.056665,526.138385 514.341923,526.138385 C501.877506,526.138385 489.326874,522.804969 475.963344,515.326311 C414.318677,480.343902 467.674261,430.404176 395.991551,388.754936 L296.793518,331.336552 L296.793518,446.222522 C296.793518,529.434898 365.939005,508.65948 365.939005,578.562796 C365.939005,626.841965 330.109967,651 293.455715,651 C255.90235,651 220.060995,626.841965 220.060995,578.562796 C220.060995,508.65948 289.292698,529.434898 289.292698,446.222522 L289.292698,331.336552 L190.094666,388.754936 C118.424272,430.404176 170.954643,480.343902 110.024339,515.326311 C96.7593426,522.804969 84.2210265,526.138385 71.7566102,526.138385 C45.0418681,526.138385 23.3769389,510.320038 10.9125226,487.834861 C4.23691622,477.010487 0,462.040869 0,448.707208 C0,426.222031 10.9125226,403.773755 37.553365,388.754936 C50.091681,381.276278 61.7432006,377.942863 70.8574972,377.942863 C95.8602295,377.942863 115.086469,396.245895 143.427004,396.245895 C155.078524,396.245895 170.05553,392.088351 186.756862,382.949136 L285.967212,325.518451 L186.756862,268.050864 C170.05553,258.899348 155.078524,254.754105 143.427004,254.754105 C114.261255,254.754105 95.8602295,273.057137 70.8574972,273.057137 C60.9179873,273.057137 50.091681,269.723722 37.553365,262.232763 C10.9125226,247.275446 0,224.777969 0,202.292792 C0,188.996032 4.23691622,173.989513 10.9125226,163.165139 C23.3769389,140.716863 45.0418681,124.898517 71.7566102,124.898517 C84.2210265,124.898517 96.7593426,128.231932 110.024339,135.71059 C171.76754,170.656098 118.424272,220.632726 190.094666,262.232763 L289.292698,319.663448 L289.292698,204.814379 C289.292698,121.565102 220.060995,142.389721 220.060995,72.4372036 C220.060995,24.158035 255.90235,0 293.455715,0 C330.109967,0 365.939005,24.158035 365.939005,72.4372036 C365.939005,142.389721 296.793518,121.565102 296.793518,204.814379 L296.793518,319.663448 L395.991551,262.232763 C467.674261,220.632726 415.131573,170.656098 475.963344,135.71059 C489.326874,128.231932 501.877506,124.898517 514.341923,124.898517 C541.056665,124.898517 562.709277,140.716863 575.173694,163.165139 C581.8493,173.989513 586,188.996032 586,202.292792 C586,224.777969 575.173694,247.275446 548.545168,262.232763 C535.994535,269.723722 524.343016,273.057137 515.142503,273.057137 C490.13977,273.057137 470.999748,254.754105 442.659212,254.754105 C431.007693,254.754105 415.94447,258.899348 399.329354,268.050864 L300.131321,325.518451 L399.329354,382.949136 C415.94447,392.088351 431.007693,396.245895 442.659212,396.245895 C471.812644,396.245895 490.13977,377.942863 515.142503,377.942863 C525.168229,377.942863 535.994535,381.276278 548.545168,388.754936 C575.173694,403.773755 586,426.222031 586,448.707208" id="Fill-1" fill="#F9BD00" mask="url(#mask-2)"></path>
            </g>
        </g>
    </g>
</svg>