<?xml version="1.0" encoding="UTF-8"?>
<svg width="521px" height="196px" viewBox="0 0 521 196" version="1.1" xmlns="http://www.w3.org/2000/svg" xmlns:xlink="http://www.w3.org/1999/xlink">
    <!-- Generator: Sketch 63.1 (92452) - https://sketch.com -->
    <title>Group 95</title>
    <desc>Created with Sketch.</desc>
    <defs>
        <polygon id="path-1" points="0.587394737 0.404695652 38.5468741 0.404695652 38.5468741 39.9994783 0.587394737 39.9994783"></polygon>
        <polygon id="path-3" points="0 0.267818182 7.33806667 0.267818182 7.33806667 7.966 0 7.966"></polygon>
    </defs>
    <g id="Welcome" stroke="none" stroke-width="1" fill="none" fill-rule="evenodd">
        <g id="Desktop-subpage" transform="translate(-25.000000, -25.000000)">
            <g id="Group-95" transform="translate(25.000000, 25.000000)">
                <path d="M116,28.7431062 C116,11.4321784 129.39792,0 149.453789,0 C162.445171,0 167.394948,3.30093986 169.017533,3.30093986 C169.670134,3.30093986 170.074889,2.57604144 170.401189,0.724898415 L174.623477,0.724898415 L174.623477,18.1967183 L169.427637,18.1967183 C167.070431,9.33881324 160.738782,5.15385093 150.996137,5.15385093 C137.840713,5.15385093 128.993165,13.8490958 128.993165,28.7431062 C128.993165,44.3602469 137.678455,51.8479171 150.266865,51.8479171 C162.199108,51.8479171 168.288262,47.4189646 170.80416,36.7116846 L176,36.7116846 L175.432987,52.0105773 C167.394948,55.3910791 159.035958,57 149.616048,57 C128.342348,57 116,46.6145042 116,28.7431062" id="Fill-1" fill="#2E2014"></path>
                <path d="M216.357064,38.0392234 C216.357064,29.8009839 212.488835,21.7981728 204.35618,21.7981728 C198.073624,21.7981728 193.644705,26.8388018 193.644705,35.9572627 C193.644705,44.1990161 197.511165,52.1983133 205.645589,52.1983133 C211.928145,52.1983133 216.357064,47.1594413 216.357064,38.0392234 M181,36.9991215 C181,24.8376598 190.501658,17 205,17 C219.494804,17 229,24.8376598 229,36.9991215 C229,49.1605833 219.494804,57 205,57 C190.501658,57 181,49.1605833 181,36.9991215" id="Fill-3" fill="#2E2014"></path>
                <path d="M273,39.2447183 L272.358111,56 L232.798404,56 L232.798404,46.7007042 L261.869821,27.2992958 L244.64961,27.2992958 C239.525049,27.2992958 237.126319,28.3415493 236.804495,32.3503521 L232,32.3503521 L232,18 L270.675131,18 L270.675131,27.2992958 L241.447199,46.7007042 L258.9822,46.7007042 C266.113322,46.7007042 267.553616,45.0158451 268.191988,39.2447183 L273,39.2447183 Z" id="Fill-5" fill="#2E2014"></path>
                <path d="M324,18 L324,21.0896921 C320.595215,21.6572959 319.72491,23.0406069 317.195641,28.0794288 L303.354146,55.4689871 C297.024025,67.9045069 290.379482,74 281.523566,74 C275.035365,74 271,70.6675591 271,66.1160196 C271,61.8893351 273.768994,59.3708166 277.172042,59.3708166 C282.075975,59.3708166 281.917896,64.8148148 286.186037,67.9045069 C289.827073,66.6033021 293.702622,63.0298974 297.5,55.9580544 L283.264176,29.1361 C280.335365,23.6903168 278.990823,21.6572959 275.751065,21.0896921 L275.751065,18 L299.558505,18 L299.558505,21.0896921 C295.52314,21.1700134 293.94061,22.389112 293.94061,24.3400268 C293.94061,25.8018742 294.494756,27.1851852 295.75939,29.5412762 L303.432317,44.4149933 L311.027073,29.5412762 C312.293445,27.0227577 312.767683,25.6412316 312.767683,24.3400268 C312.767683,22.3070058 311.263324,21.1700134 307.624025,21.0896921 L307.624025,18 L324,18 Z" id="Fill-7" fill="#2E2014"></path>
                <path d="M116,167.743106 C116,150.433946 129.39792,139 149.453789,139 C162.445171,139 167.394948,142.30094 169.017533,142.30094 C169.670134,142.30094 170.074889,141.577809 170.401189,139.724898 L174.623477,139.724898 L174.623477,157.196718 L169.427637,157.196718 C167.070431,148.338813 160.738782,144.153851 150.996137,144.153851 C137.840713,144.153851 128.993165,152.849096 128.993165,167.743106 C128.993165,183.360247 137.678455,190.847917 150.266865,190.847917 C162.199108,190.847917 168.288262,186.420733 170.80416,175.711685 L176,175.711685 L175.432987,191.010577 C167.394948,194.391079 159.035958,196 149.616048,196 C128.342348,196 116,185.614504 116,167.743106" id="Fill-9" fill="#2E2014"></path>
                <path d="M216.357064,177.039223 C216.357064,168.800984 212.488835,160.798173 204.35618,160.798173 C198.073624,160.798173 193.644705,165.838802 193.644705,174.95902 C193.644705,183.200773 197.511165,191.20007 205.645589,191.20007 C211.928145,191.20007 216.357064,186.159441 216.357064,177.039223 M181,175.999122 C181,163.83766 190.501658,156 205,156 C219.494804,156 229,163.83766 229,175.999122 C229,188.160583 219.494804,196 205,196 C190.501658,196 181,188.160583 181,175.999122" id="Fill-11" fill="#2E2014"></path>
                <path d="M256,191.949797 L256,195 L230,195 L230,191.949797 C236.902312,191.387361 237.78537,189.781156 237.78537,183.518544 L237.78537,151.405023 C237.78537,146.589935 236.579757,145.304618 231.039929,145.223514 L231.039929,141.931764 L245.006711,138 L248.21463,138 L248.21463,183.518544 C248.21463,189.781156 251.108806,191.387361 256,191.949797" id="Fill-13" fill="#2E2014"></path>
                <path d="M284,191.949797 L284,195 L258,195 L258,191.949797 C264.900908,191.387361 265.783787,189.781156 265.783787,183.518544 L265.783787,151.405023 C265.783787,146.589935 264.578419,145.304618 259.045005,145.223514 L259.045005,141.931764 L273.007184,138 L276.216213,138 L276.216213,183.518544 C276.216213,189.781156 279.104514,191.387361 284,191.949797" id="Fill-15" fill="#2E2014"></path>
                <path d="M295.160973,167.599245 L312.357681,167.599245 C312.278628,162.558616 309.557441,160.079589 305.079516,160.079589 C299.561601,160.079589 296.362581,162.720253 295.160973,167.599245 L295.160973,167.599245 Z M323,180.400228 C320.835699,191.04019 314.919005,196 305.160325,196 C292.921132,196 285,188.320464 285,176.557825 C285,163.756841 292.842078,156 305.720725,156 C316.918173,156 323,161.599332 322.678517,171.838714 L294.519763,171.838714 L294.519763,173.040453 C294.519763,180.560109 299.399982,185.198401 307.957052,185.198401 C313.55929,185.198401 317.399519,182.798436 319.319634,179.198489 L323,180.400228 Z" id="Fill-17" fill="#2E2014"></path>
                <path d="M327,176.557825 C327,164.078359 335.469366,156 348.534203,156 C358.431068,156 365,160.719111 365,167.919006 C365,172.318356 362.546648,175.038081 358.749256,175.038081 C355.4248,175.038081 353.046214,172.799754 353.046214,169.519568 C353.046214,166.478324 355.4248,165.678921 356.295905,163.358018 C354.866667,162.077217 351.858659,161.277814 348.534203,161.277814 C341.092427,161.277814 336.422192,165.919621 336.422192,173.198577 C336.422192,180.800808 341.247175,185.119339 349.721757,185.119339 C355.024891,185.119339 358.985724,183.039136 360.962663,179.198489 L364.607046,180.400228 C362.468405,190.961128 356.688858,196 346.873713,196 C334.756486,196 327,188.478587 327,176.557825" id="Fill-19" fill="#2E2014"></path>
                <path d="M409,186.120626 C405.243685,192.841446 401.167908,196 393.176085,196 C383.985401,196 378.949482,190.492094 378.949482,179.559869 L378.949482,165.389059 L368,165.389059 L368,160.366673 C376.869467,160.124802 382.305591,156.398917 383.904658,150 L389.340783,150 L389.340783,156.802629 L405.48767,156.802629 L405.48767,165.389059 L389.340783,165.389059 L389.340783,178.103306 C389.340783,185.067775 391.336544,187.577189 396.611182,187.577189 C400.288509,187.577189 403.484887,186.280688 406.444302,183.689465 L409,186.120626 Z" id="Fill-21" fill="#2E2014"></path>
                <path d="M414.07274,146.210029 C414.07274,141.88366 416.96968,139 421.317743,139 C425.582733,139 428.477906,141.88366 428.477906,146.210029 C428.477906,150.457225 425.582733,153.421817 421.317743,153.421817 C416.96968,153.421817 414.07274,150.457225 414.07274,146.210029 L414.07274,146.210029 Z M409,191.956235 C415.359483,191.636024 416.80707,190.195074 416.80707,184.26589 L416.80707,169.923246 C416.80707,164.074995 415.281713,163.515505 409.083073,163.515505 L409.083073,160.46998 L424.052073,156.544755 L427.2707,156.544755 L427.2707,184.26589 C427.2707,190.195074 429.124813,191.636024 435,191.956235 L435,195 L409,195 L409,191.956235 Z" id="Fill-23" fill="#2E2014"></path>
                <path d="M483,157 L483,160.047535 C479.230731,160.369718 477.712114,162.290493 475.227423,167.262324 L461.445485,195 L454.87654,195 L440.932709,168.785211 C436.846695,161.089789 436.042514,160.207746 433,160.047535 L433,157 L457.679735,157 L457.679735,160.047535 C453.512775,160.126761 451.350109,161.329225 451.350109,163.81338 C451.350109,164.855634 451.74956,166.140845 452.469276,167.663732 L461.046034,184.980634 L469.135356,168.625 C470.338988,166.22007 470.659252,164.93662 470.659252,163.894366 C470.659252,161.329225 468.498346,160.126761 464.88921,160.047535 L464.88921,157 L483,157 Z" id="Fill-25" fill="#2E2014"></path>
                <g id="Group-29" transform="translate(482.000000, 156.000000)">
                    <mask id="mask-2" fill="white">
                        <use xlink:href="#path-1"></use>
                    </mask>
                    <g id="Clip-28"></g>
                    <path d="M10.7339096,11.8864348 L27.9185709,11.8864348 C27.8360789,6.89686957 25.1208638,4.44295652 20.6469897,4.44295652 C15.1305572,4.44295652 11.9344314,7.05686957 10.7339096,11.8864348 L10.7339096,11.8864348 Z M38.5477517,24.5577391 C36.3906739,35.089913 30.4740675,39.9994783 20.7242162,39.9994783 C8.49960526,39.9994783 0.587394737,32.3977391 0.587394737,20.7542609 C0.587394737,8.08295652 8.41711327,0.404695652 21.2841087,0.404695652 C32.4766922,0.404695652 38.5477517,5.94730435 38.2265595,16.0829565 L10.0967906,16.0829565 L10.0967906,17.2725217 C10.0967906,24.716 14.9690835,29.3073043 23.5236785,29.3073043 C29.1190927,29.3073043 32.9523375,26.9316522 34.8707151,23.3681739 L38.5477517,24.5577391 Z" id="Fill-27" fill="#2E2014" mask="url(#mask-2)"></path>
                </g>
                <path d="M3,96.7431062 C3,79.4321784 16.3979198,68 36.4484398,68 C49.4398217,68 54.3931649,71.3009399 56.0121842,71.3009399 C56.6647845,71.3009399 57.0731055,70.5760414 57.3958395,68.7248984 L61.6181278,68.7248984 L61.6181278,86.1967183 L56.4222883,86.1967183 C54.0686478,77.3388132 47.7334324,73.1538509 37.9907875,73.1538509 C24.835364,73.1538509 15.9878158,81.8490958 15.9878158,96.7431062 C15.9878158,112.360247 24.6766716,119.847917 37.2615156,119.847917 C49.1937593,119.847917 55.2864785,115.418965 57.7988113,104.711685 L63,104.711685 L62.4329866,120.007041 C54.3931649,123.391079 46.0306092,125 36.6106984,125 C15.3369985,125 3,114.614504 3,96.7431062" id="Fill-30" fill="#2E2014"></path>
                <path d="M102.355761,106.039223 C102.355761,97.8009839 98.4894432,89.7981728 90.3588563,89.7981728 C84.0729946,89.7981728 79.6442389,94.8388018 79.6442389,103.957263 C79.6442389,112.199016 83.5105568,120.198313 91.6446811,120.198313 C97.9270054,120.198313 102.355761,115.159441 102.355761,106.039223 M67,104.999122 C67,92.8376598 76.5066141,85 90.9991157,85 C105.493386,85 115,92.8376598 115,104.999122 C115,117.160583 105.493386,125 90.9991157,125 C76.5066141,125 67,117.160583 67,104.999122" id="Fill-32" fill="#2E2014"></path>
                <path d="M120,105.557825 C120,93.078359 128.471681,85 141.536463,85 C151.428493,85 158,89.719111 158,96.9190056 C158,101.318356 155.54177,104.038081 151.746637,104.038081 C148.420899,104.038081 146.042639,101.799754 146.042639,98.5195678 C146.042639,95.4783239 148.420899,94.6789212 149.291884,92.3580182 C147.866319,91.077217 144.856986,90.2778144 141.536463,90.2778144 C134.092232,90.2778144 129.420899,94.9196205 129.420899,102.198577 C129.420899,109.799051 134.250435,114.119339 142.718638,114.119339 C148.021045,114.119339 151.981334,112.039136 153.963217,108.198489 L157.601885,109.400228 C155.463537,119.959371 149.686522,125 139.870985,125 C127.75716,125 120,117.480344 120,105.557825" id="Fill-34" fill="#2E2014"></path>
                <path d="M197.180192,95.4188989 L188.795109,101.762419 L202.60769,116.773183 C204.84956,119.264398 206.205557,120.466811 209,120.949892 L209,124 L186.397116,124 L186.397116,120.949892 C188.874048,120.870554 190.149353,120.225271 190.149353,119.022858 C190.149353,118.381101 189.673964,117.65648 188.874048,116.773183 L180.964355,107.783297 L176.091183,111.476925 L176.091183,114.606372 C176.091183,118.620878 176.970038,120.547912 181.60113,120.949892 L181.60113,124 L159.073676,124 L159.073676,120.949892 C165.146721,120.708351 165.70982,119.987256 165.70982,114.606372 L165.70982,80.4063718 C165.70982,75.5914321 164.511701,74.3061553 159,74.2250541 L159,70.9334055 L172.895029,67 L176.091183,67 L176.091183,105.614723 L188.712662,95.8208784 C190.626495,94.3769255 191.587798,93.2520878 191.587798,92.1272502 C191.587798,90.522858 190.308985,89.3169193 186.79532,88.9978039 L186.79532,85.9459326 L209,85.9459326 L209,88.9978039 C206.442374,89.8811011 201.655159,92.0461491 197.180192,95.4188989" id="Fill-36" fill="#2E2014"></path>
                <path d="M252,115.118848 C248.243364,121.841446 244.167238,125 236.17473,125 C226.983259,125 221.946909,119.492094 221.946909,108.559869 L221.946909,94.3872801 L211,94.3872801 L211,89.3666731 C219.866715,89.1248019 225.306816,85.4006959 226.900754,79 L232.34261,79 L232.34261,85.8044075 L248.485614,85.8044075 L248.485614,94.3872801 L232.34261,94.3872801 L232.34261,107.103306 C232.34261,114.067775 234.338543,116.577189 239.613632,116.577189 C243.287763,116.577189 246.484415,115.280688 249.444083,112.689465 L252,115.118848 Z" id="Fill-38" fill="#2E2014"></path>
                <path d="M280.815851,112.279835 L280.815851,106.919445 L272.783965,109.238591 C268.293795,110.519392 266.529107,111.717618 266.529107,114.27922 C266.529107,116.440242 268.212701,117.638468 270.862377,117.638468 C274.550416,117.638468 278.64569,115.319322 280.815851,112.279835 L280.815851,112.279835 Z M300,114.040278 C299.196106,121.640752 296.066914,124.678482 290.44671,124.678482 C284.826505,124.678482 281.699076,121.877937 280.976277,116.758247 C277.762465,122.199455 273.029012,125 266.846434,125 C260.265435,125 255.932166,121.719814 255.932166,116.278605 C255.932166,110.758334 259.38221,108.11767 268.533553,105.717705 L280.815851,102.518338 L280.815851,100.039311 C280.815851,93.9585804 277.688422,90.7592129 271.585176,90.7592129 C268.293795,90.7592129 264.598705,91.398735 262.114743,92.4388369 C262.997969,95.5573857 266.125398,96.3567883 266.125398,99.8776738 C266.125398,103.238679 263.558579,105.557825 260.025677,105.557825 C256.409918,105.557825 254,102.918918 254,99.0782712 C254,91.6376773 263.715479,85 275.276741,85 C285.953014,85 291.252367,90.2778144 291.252367,100.757895 L291.252367,113.237361 C291.252367,115.560021 292.133829,116.918127 294.219369,116.918127 C295.82892,116.918127 296.629288,116.118724 297.429655,113.398999 L300,114.040278 Z" id="Fill-40" fill="#2E2014"></path>
                <path d="M305.068471,75.2100286 C305.068471,70.8836596 307.969538,68 312.318488,68 C316.580812,68 319.476576,70.8836596 319.476576,75.2100286 C319.476576,79.4554651 316.580812,82.4218166 312.318488,82.4218166 C307.969538,82.4218166 305.068471,79.4554651 305.068471,75.2100286 L305.068471,75.2100286 Z M300,120.956235 C306.359013,120.634264 307.808663,119.195074 307.808663,113.26589 L307.808663,98.9232461 C307.808663,93.0749945 306.277691,92.5155047 300.077786,92.5155047 L300.077786,89.4699802 L315.053376,85.5447548 L318.272659,85.5447548 L318.272659,113.26589 C318.272659,119.195074 320.123615,120.634264 326,120.956235 L326,124 L300,124 L300,120.956235 Z" id="Fill-42" fill="#2E2014"></path>
                <path d="M354,120.949892 L354,124 L328,124 L328,120.949892 C334.905259,120.387473 335.788018,118.781318 335.788018,112.518899 L335.788018,80.4063718 C335.788018,75.5914321 334.582814,74.3061553 329.048387,74.2250541 L329.048387,70.9334055 L343.00515,67 L346.213744,67 L346.213744,112.518899 C346.213744,118.781318 349.101654,120.387473 354,120.949892" id="Fill-44" fill="#2E2014"></path>
                <path d="M7.61966062,9.75106282 C8.24107665,9.75106282 8.63428906,9.3051488 8.63428906,8.67028814 C8.63428906,8.01086443 8.20772382,7.56306094 7.58630778,7.56306094 L5.3464014,7.56306094 L5.3464014,9.75106282 L7.61966062,9.75106282 Z M7.43534231,6.38781294 C8.05500293,6.38781294 8.41837332,5.96457251 8.41837332,5.3051488 C8.41837332,4.67028814 8.01287303,4.24515824 7.39847864,4.24515824 L5.3464014,4.24515824 L5.3464014,6.38781294 L7.43534231,6.38781294 Z M4,3 L7.44411937,3 C8.84318315,3 9.78057343,3.84648087 9.78057343,5.21067548 C9.78057343,5.91922532 9.53306027,6.61076996 8.74488005,6.97732641 C9.68578116,7.32876712 10,8.04676429 10,8.80066131 C10,10.1516297 9.05909889,11 7.66003511,11 L4,11 L4,3 Z" id="Fill-46" fill="#2E2014"></path>
                <path d="M16.7613532,6.76470588 C17.3770192,6.76470588 17.8037184,6.28088826 17.8037184,5.51736357 C17.8037184,4.75194897 17.3770192,4.25679187 16.7613532,4.25679187 L15.1871381,4.25679187 L15.1871381,6.76470588 L16.7613532,6.76470588 Z M18.8217007,10.1646586 C18.8384639,10.5294118 18.876562,10.7883298 18.9527583,11 L17.7656202,11 C17.7016154,10.8242381 17.6619933,10.5520907 17.6421823,10.2704937 L17.5781774,9.15166549 C17.5202682,8.25962674 17.2733923,7.98747933 16.7323987,7.98747933 L15.1871381,7.98747933 L15.1871381,11 L14,11 L14,3 L16.8939348,3 C18.09936,3 19,4.05835105 19,5.51736357 C19,6.41129223 18.611399,7.11622962 17.995733,7.49232223 C18.4498628,7.75313017 18.6891192,8.22182849 18.7439805,8.99858257 L18.8217007,10.1646586 Z" id="Fill-48" fill="#2E2014"></path>
                <path d="M28.5462899,7 C28.5462899,5.41587731 27.484034,4.28101037 25.9935677,4.28101037 C24.5067769,4.28101037 23.444521,5.41587731 23.444521,7 C23.444521,8.58412269 24.5067769,9.71898963 25.9935677,9.71898963 C27.484034,9.71898963 28.5462899,8.58412269 28.5462899,7 M22,7 C22,4.75372124 23.6632208,3 25.9935677,3 C28.250402,3 30,4.67433469 30,7 C30,9.24627876 28.3275902,11 25.9935677,11 C23.7404089,11 22,9.32566531 22,7" id="Fill-50" fill="#2E2014"></path>
                <path d="M34,7.5344429 L34,3 L35.2930748,3 L35.2930748,7.44382802 C35.2930748,8.8825705 35.9113573,9.72399445 36.998338,9.72399445 C38.0869806,9.72399445 38.7168975,8.8825705 38.7168975,7.44382802 L38.7168975,3 L40,3 L40,7.5344429 C40,9.66481738 38.8398892,11 36.998338,11 C35.1584488,11 34,9.66481738 34,7.5344429" id="Fill-52" fill="#2E2014"></path>
                <path d="M43,7 C43,4.65087957 44.7969639,3 47.1233397,3 C49.0607211,3 50.6565465,4.11321606 50.8462998,5.55119531 L49.3908918,5.74064051 C49.2258065,4.84393324 48.3282732,4.2142535 47.1233397,4.2142535 C45.6110057,4.2142535 44.4895636,5.29138475 44.4895636,7 C44.4895636,8.69418133 45.626186,9.77311682 47.1612903,9.77311682 C48.4819734,9.77311682 49.487666,9.0315742 49.5483871,7.92196662 L46.6774194,7.92196662 L46.6774194,6.78529544 L50.9525617,6.78529544 C50.9753321,6.92241768 51,7.15696888 51,7.43843031 C51,9.68470907 49.3339658,11 47.1385199,11 C44.7969639,11 43,9.34731619 43,7" id="Fill-54" fill="#2E2014"></path>
                <polygon id="Fill-56" fill="#2E2014" points="54 3 55.3335235 3 55.3335235 6.35270494 58.6767475 6.35270494 58.6767475 3 60 3 60 11 58.6767475 11 58.6767475 7.61138672 55.3335235 7.61138672 55.3335235 11 54 11"></polygon>
                <polygon id="Fill-58" fill="#2E2014" points="66.293589 4.25838451 64 4.25838451 64 3 70 3 70 4.25838451 67.6938286 4.25838451 67.6938286 11 66.293589 11"></polygon>
                <polygon id="Fill-60" fill="#2E2014" points="15.2942763 19.2583845 13 19.2583845 13 18 19 18 19 19.2583845 16.6931375 19.2583845 16.6931375 26 15.2942763 26"></polygon>
                <path d="M28.5456217,22 C28.5456217,20.4158773 27.4828775,19.2810104 25.9935647,19.2810104 C24.5079292,19.2810104 23.4433464,20.4158773 23.4433464,22 C23.4433464,23.5841227 24.5079292,24.7189896 25.9935647,24.7189896 C27.4828775,24.7189896 28.5456217,23.5841227 28.5456217,22 M22,22 C22,19.7537212 23.660308,18 25.9935647,18 C28.2477591,18 30,19.6743347 30,22 C30,24.2462788 28.3304987,26 25.9935647,26 C23.7412089,26 22,24.3256653 22,22" id="Fill-62" fill="#2E2014"></path>
                <polygon id="Fill-64" fill="#2E2014" points="39.8132141 23.2350579 37 18 38.5457029 18 40.5052161 21.7779353 42.506458 18 44 18 41.1659215 23.2350579 41.1659215 26 39.8132141 26"></polygon>
                <path d="M52.5462899,22 C52.5462899,20.4158773 51.484034,19.2810104 49.9935677,19.2810104 C48.5067769,19.2810104 47.444521,20.4158773 47.444521,22 C47.444521,23.5841227 48.5067769,24.7189896 49.9935677,24.7189896 C51.484034,24.7189896 52.5462899,23.5841227 52.5462899,22 M46,22 C46,19.7537212 47.6632208,18 49.9935677,18 C52.250402,18 54,19.6743347 54,22 C54,24.2462788 52.3275902,26 49.9935677,26 C47.7404089,26 46,24.3256653 46,22" id="Fill-66" fill="#2E2014"></path>
                <path d="M57,22.5352438 L57,18 L58.2923588,18 L58.2923588,22.442801 C58.2923588,23.8830599 58.9136213,24.7224405 60,24.7224405 C61.0847176,24.7224405 61.717608,23.8830599 61.717608,22.442801 L61.717608,18 L63,18 L63,22.5352438 C63,24.665126 61.8405316,26 60,26 C58.1578073,26 57,24.665126 57,22.5352438" id="Fill-68" fill="#2E2014"></path>
                <path d="M13.6165105,176.751063 C14.2418033,176.751063 14.6370023,176.303259 14.6370023,175.670288 C14.6370023,175.010864 14.2101874,174.563061 13.5848946,174.563061 L11.3436768,174.563061 L11.3436768,176.751063 L13.6165105,176.751063 Z M13.4338407,173.387813 C14.057377,173.387813 14.4174473,172.964573 14.4174473,172.303259 C14.4174473,171.670288 14.0117096,171.245158 13.4004684,171.245158 L11.3436768,171.245158 L11.3436768,173.387813 L13.4338407,173.387813 Z M10,170 L13.442623,170 C14.8425059,170 15.7839578,170.846481 15.7839578,172.210675 C15.7839578,172.917336 15.5327869,173.61077 14.7441452,173.977326 C15.6855972,174.328767 16,175.046764 16,175.800661 C16,177.15163 15.0620609,178 13.662178,178 L10,178 L10,170 Z" id="Fill-70" fill="#2E2014"></path>
                <polygon id="Fill-72" fill="#2E2014" points="21.8125155 175.235058 19 170 20.5470574 170 22.5043457 173.776045 24.5068289 170 26 170 23.1666253 175.235058 23.1666253 178 21.8125155 178"></polygon>
                <path d="M39.5456217,174 C39.5456217,172.415877 38.4828775,171.28101 36.9935647,171.28101 C35.5079292,171.28101 34.445185,172.415877 34.445185,174 C34.445185,175.582318 35.5079292,176.71899 36.9935647,176.71899 C38.4828775,176.71899 39.5456217,175.582318 39.5456217,174 M33,174 C33,171.753721 34.660308,170 36.9935647,170 C39.2495978,170 41,171.674335 41,174 C41,176.246279 39.3304987,178 36.9935647,178 C34.7412089,178 33,176.323861 33,174" id="Fill-74" fill="#2E2014"></path>
                <polygon id="Fill-76" fill="#2E2014" points="44 170 45.6737896 170 49.5609954 175.975904 49.5250203 170 51 170 51 178 49.3148499 178 45.4352177 172.024096 45.4692994 178 44 178"></polygon>
                <polygon id="Fill-78" fill="#2E2014" points="54 170 59 170 59 171.256792 55.2698675 171.256792 55.2698675 173.399953 58.557947 173.399953 58.557947 174.588708 55.2698675 174.588708 55.2698675 176.741318 58.968543 176.741318 58.968543 178 54 178"></polygon>
                <g id="Group-82" transform="translate(0.000000, 185.000000)">
                    <mask id="mask-4" fill="white">
                        <use xlink:href="#path-3"></use>
                    </mask>
                    <g id="Clip-81"></g>
                    <path d="M4.77793333,4.79509091 L3.66686667,1.66054545 L2.5246,4.79509091 L4.77793333,4.79509091 Z M5.19913333,5.97327273 L2.093,5.97327273 L1.3702,7.966 L-0.000866666667,7.966 L2.8366,0.267818182 L4.54393333,0.267818182 L7.33806667,7.966 L5.8994,7.966 L5.19913333,5.97327273 Z" id="Fill-80" fill="#2E2014" mask="url(#mask-4)"></path>
                </g>
                <polygon id="Fill-83" fill="#2E2014" points="10 185 11.6737896 185 15.5609954 190.975904 15.5269137 185 17 185 17 193 15.3167433 193 11.4371112 187.024096 11.4692994 193 10 193"></polygon>
                <path d="M23.809872,191.739726 C25.5283364,191.739726 26.5429616,190.670288 26.5429616,188.986774 C26.5429616,187.329712 25.5283364,186.258385 23.809872,186.258385 L22.4223035,186.258385 L22.4223035,191.739726 L23.809872,191.739726 Z M21,185 L23.820841,185 C26.3400366,185 28,186.611715 28,188.986774 C28,191.388285 26.3400366,193 23.820841,193 L21,193 L21,185 Z" id="Fill-85" fill="#2E2014"></path>
                <path d="M41.5456217,189 C41.5456217,187.415877 40.4810388,186.28101 38.9935647,186.28101 C37.5060906,186.28101 36.4433464,187.415877 36.4433464,189 C36.4433464,190.584123 37.5060906,191.71899 38.9935647,191.71899 C40.4810388,191.71899 41.5456217,190.584123 41.5456217,189 M35,189 C35,186.753721 36.6584693,185 38.9935647,185 C41.2477591,185 43,186.674335 43,189 C43,191.246279 41.3304987,193 38.9935647,193 C36.7412089,193 35,191.323861 35,189" id="Fill-87" fill="#2E2014"></path>
                <polygon id="Fill-89" fill="#2E2014" points="46 185 47.6737896 185 51.5609954 190.975904 51.5269137 185 53 185 53 193 51.3167433 193 47.4371112 187.024096 47.4692994 193 46 193"></polygon>
                <polygon id="Fill-91" fill="#2E2014" points="57 185 58.4447329 185 58.4447329 191.741318 62 191.741318 62 193 57 193"></polygon>
                <polygon id="Fill-93" fill="#2E2014" points="65.8125155 190.235058 63 185 64.5470574 185 66.5043457 188.776045 68.5068289 185 70 185 67.1666253 190.235058 67.1666253 193 65.8125155 193"></polygon>
            </g>
        </g>
    </g>
</svg>