<?xml version="1.0" encoding="UTF-8"?>
<svg width="46px" height="75px" viewBox="0 0 46 75" version="1.1" xmlns="http://www.w3.org/2000/svg" xmlns:xlink="http://www.w3.org/1999/xlink">
    <!-- Generator: Sketch 63.1 (92452) - https://sketch.com -->
    <title>Group 3</title>
    <desc>Created with Sketch.</desc>
    <defs>
        <polygon id="path-1" points="0 0 46 0 46 75 0 75"></polygon>
    </defs>
    <g id="Welcome" stroke="none" stroke-width="1" fill="none" fill-rule="evenodd">
        <g id="Desktop-subpage" transform="translate(-1272.000000, -4123.000000)">
            <g id="Group-3" transform="translate(1272.000000, 4123.000000)">
                <mask id="mask-2" fill="white">
                    <use xlink:href="#path-1"></use>
                </mask>
                <g id="Clip-2"></g>
                <path d="M32.3714846,41.6676943 C27.2477738,40.6757715 22.3740001,37.2930604 18.9142225,32.0976046 C18.2500377,34.5739433 17.2595462,36.717329 15.933491,38.3659093 C18.8239674,42.8237815 22.7049354,45.1359559 27.3357146,45.1359559 C29.8142577,45.1359559 31.5406752,44.3891235 32.3714846,41.6676943 M26.2549681,67.4923698 C26.2549681,63.6148534 25.2714192,57.7558036 25.2714192,52.8909887 C25.2714192,51.3210223 25.3524174,49.5036532 25.5120994,47.6885964 C22.6239372,47.3579554 19.8954571,46.2874187 17.4192283,44.1417209 C16.0168033,47.9406234 15.4451879,51.7325893 15.4451879,57.7558036 C15.4451879,65.8414773 18.6619711,72.2785708 22.7928762,72.2785708 C24.8594858,72.2785708 26.2549681,70.3779634 26.2549681,67.4923698 M14.6120642,9.65564016 C15.60487,9.40823751 16.6786738,9.24407313 17.7524777,9.40823751 C19.6547769,6.6844961 23.2048096,5.28100626 28.0808975,5.28100626 C29.8952558,5.28100626 31.6309302,5.61164719 33.3642904,6.18737861 C33.0333551,3.63242593 31.2976807,2.6428153 26.9191528,2.6428153 C20.8095789,2.6428153 15.3618755,5.94228813 14.6120642,9.65564016 M43.1048951,28.6316552 C43.1048951,15.4314517 36.4144489,7.75503283 27.6597072,7.75503283 C21.6311315,7.75503283 17.1785481,11.3042205 16.7666147,18.6476863 C16.4356794,18.152881 16.0168033,16.5829146 16.0168033,15.3459013 C16.0168033,14.1944384 16.1857423,13.1215895 16.4356794,12.1296667 C13.2096393,12.0487406 9.41661216,15.9262571 8.1738693,21.1217129 C9.57629421,19.4731325 11.4832218,18.4835219 13.5382603,18.4835219 C15.1119384,18.4835219 16.3454244,18.8974011 17.2595462,19.7205352 C18.4930321,17.5748374 20.1477084,16.668465 23.1238114,16.668465 C26.6738441,16.668465 30.7978065,20.3795049 32.6214217,24.7541388 C35.5928963,25.0847797 36.9143231,26.6524339 36.5023897,29.2929371 C35.9215173,27.7252829 34.6787745,26.7333601 33.3642904,26.7333601 C33.8572219,28.5484169 33.8572219,30.365786 33.1930372,32.0143663 C32.5311667,25.4154207 26.7548423,19.3089682 23.0358706,19.3089682 C21.3025104,19.3089682 19.6547769,20.300891 18.7429693,21.7829947 C19.3238416,23.0223202 19.576093,24.5899744 19.576093,26.5691957 C19.576093,27.1449271 19.576093,27.6420446 19.4858379,28.2224003 C23.2858077,34.7381077 28.8214519,38.8630268 34.5977763,38.8630268 C40.2144187,38.8630268 43.1048951,35.3970774 43.1048951,28.6316552 M17.088293,26.5691957 C17.088293,22.6893671 16.0168033,20.7933841 13.8691956,20.7933841 C10.2404789,20.7933841 7.01906726,25.6628233 6.51919304,31.9334402 C5.94526337,30.777353 5.69764049,28.7981318 5.86657946,26.8998366 C6.02626151,25.0847797 6.60713387,23.5171255 7.43100065,22.1945618 C7.18106354,21.2072633 7.01906726,20.300891 7.1000654,19.3898943 C4.37158525,20.7933841 2.55722695,25.0015414 2.55722695,29.4594136 C2.55722695,35.6467922 5.11676812,39.4387582 9.3263571,39.4387582 C13.5382603,39.4387582 17.088293,33.5820205 17.088293,26.5691957 M35.5095839,41.9127848 C34.6787745,45.5452107 32.1215475,47.4435059 28.5692006,47.6885964 C28.3215777,49.0920862 28.0808975,50.9071431 28.0808975,53.0551531 C28.0808975,57.2633104 29.1500729,62.7894072 29.1500729,67.8253229 C29.1500729,72.5236613 26.8358404,75 22.5429391,75 C17.1785481,75 12.4644564,67.2449672 12.4644564,57.7558036 C12.4644564,51.3210223 13.4572622,46.8677745 15.1929366,41.8341709 L14.0381345,40.3451306 C12.6357096,41.5035299 10.9810334,42.1624996 9.3263571,42.1624996 C3.63103084,42.1624996 0,37.2930604 0,29.7045041 C0,24.1784074 2.80716406,17.410673 7.68093777,16.256898 C8.42149218,14.1944384 9.82854556,12.4603077 11.5619057,11.2232944 C11.3929667,5.28100626 18.3333501,0 26.7548423,0 C32.783418,0 35.9215173,2.47633875 35.9215173,7.34577797 C41.9500931,10.7284891 46,18.3170453 46,28.4674908 C46,36.717329 42.0310912,41.8341709 35.5095839,41.9127848" id="Fill-1" fill="#DF383E" mask="url(#mask-2)"></path>
            </g>
        </g>
    </g>
</svg>