<?xml version="1.0" encoding="UTF-8"?>
<svg width="73px" height="43px" viewBox="0 0 73 43" version="1.1" xmlns="http://www.w3.org/2000/svg" xmlns:xlink="http://www.w3.org/1999/xlink">
    <!-- Generator: Sketch 63.1 (92452) - https://sketch.com -->
    <title>Fill 1</title>
    <desc>Created with Sketch.</desc>
    <g id="Welcome" stroke="none" stroke-width="1" fill="none" fill-rule="evenodd">
        <g id="Desktop-main" transform="translate(-122.000000, -3976.000000)" fill="#F5AA00">
            <path d="M191.751,3987.064 C191.751,3984.57 189.33,3982.777 185.751,3982.777 C177.017,3982.777 165.412,3985.506 157.462,3985.583 L157.462,3985.975 C157.462,3988.933 156.914,3991.739 156.054,3994.157 C158.162,3994.313 160.424,3995.402 161.901,3997.275 C159.876,3996.338 157.378,3996.106 154.964,3996.571 C153.327,3999.613 150.989,4001.714 148.264,4002.339 C149.353,4005.301 153.327,4007.17 158.703,4007.17 C165.252,4007.17 170.004,4002.883 170.004,3998.6 C170.004,3997.352 169.615,3995.95 168.603,3994.781 C166.577,3994.077 164.787,3993.376 162.678,3993.064 C165.252,3991.507 172.89,3994.233 179.438,3994.233 C186.375,3994.233 191.751,3991.119 191.751,3987.064 L191.751,3987.064 Z M164.628,4008.808 C162.838,4009.432 160.813,4009.82 158.627,4009.82 C154.5,4009.82 151.378,4009.04 149.2,4007.407 C146.938,4008.107 145.461,4009.432 145.461,4010.989 C145.461,4014.028 148.888,4015.977 154.188,4015.977 C160.424,4015.977 164.628,4013.327 164.628,4009.665 L164.628,4008.808 Z M143.275,4013.483 C142.812,4012.626 142.575,4011.77 142.575,4010.757 C142.575,4008.652 144.364,4006.702 147.327,4005.533 C146.702,4004.677 146.238,4003.664 145.926,4002.575 C143.824,4002.495 142.263,4001.871 141.174,4000.626 C138.288,4000.938 135.174,3999.145 134.077,3996.571 C135.562,3997.896 137.664,3998.52 139.925,3998.288 C139.537,3997.039 139.301,3995.482 139.301,3993.612 C139.301,3989.089 141.639,3985.895 145.377,3985.194 C143.04,3987.532 141.715,3990.727 141.715,3993.845 C141.715,3997.507 143.664,4000.233 146.39,4000.233 C150.525,4000.233 154.813,3992.908 154.813,3985.819 C154.813,3981.064 152.391,3978.414 147.799,3978.414 C140.626,3978.414 133.301,3984.57 129.173,3993.769 C129.325,3990.883 130.262,3988.157 131.663,3985.739 C128.389,3984.494 124.574,3989.95 124.574,3996.495 C124.574,4003.12 126.752,4007.094 129.95,4006.626 C129.014,4004.289 128.777,4001.559 129.325,3998.756 C130.498,4007.094 135.95,4012.859 143.275,4013.483 L143.275,4013.483 Z M194.941,3987.064 C194.941,3992.988 189.178,3996.807 180.375,3996.807 C176.94,3996.807 174.291,3996.415 172.113,3995.87 C172.577,3996.883 172.737,3997.976 172.737,3999.064 C172.737,4002.263 170.788,4005.377 167.59,4007.407 C167.75,4008.027 167.826,4008.652 167.826,4009.352 C167.826,4014.808 162.449,4018.707 154.188,4018.707 C150.837,4018.707 147.951,4017.847 145.85,4016.365 C138.988,4016.133 133.612,4013.171 130.963,4008.652 C125.663,4010.601 122,4005.77 122,3996.495 C122,3987.764 127.688,3981.376 132.988,3983.713 C136.498,3979.114 141.951,3976 147.799,3976 C152.703,3976 156.054,3978.493 157.066,3982.777 C166.425,3982.625 176.864,3980.051 186.14,3980.051 C191.751,3980.051 194.941,3982.625 194.941,3987.064 L194.941,3987.064 Z" id="Fill-1"></path>
        </g>
    </g>
</svg>