<svg width="64" height="70" viewBox="0 0 64 70" fill="none" xmlns="http://www.w3.org/2000/svg">
<mask id="mask0" mask-type="alpha" maskUnits="userSpaceOnUse" x="0" y="0" width="64" height="70">
<path fill-rule="evenodd" clip-rule="evenodd" d="M0 0H64V70H0V0Z" fill="white"/>
</mask>
<g mask="url(#mask0)">
<path fill-rule="evenodd" clip-rule="evenodd" d="M64 48.2481C64 49.6818 63.5453 51.2915 62.8163 52.4554C61.455 54.8731 59.0903 56.574 56.1727 56.574C54.8114 56.574 53.4407 56.2156 51.9826 55.4114C45.2502 51.6499 51.076 46.28 43.2473 41.8016L32.415 35.6276V47.9809C32.415 56.9285 39.9652 54.6946 39.9652 62.2111C39.9652 67.4024 36.0522 70 32.0491 70C27.9478 70 24.0348 67.4024 24.0348 62.2111C24.0348 54.6946 31.5958 56.9285 31.5958 47.9809V35.6276L20.7608 41.8016C12.9334 46.28 18.6718 51.6499 12.0174 55.4114C10.5674 56.2156 9.19801 56.574 7.83673 56.574C4.91915 56.574 2.55306 54.8731 1.19313 52.4554C0.46407 51.2915 0 49.6818 0 48.2481C0 45.829 1.19313 43.4152 4.10131 41.8016C5.47065 40.9974 6.74314 40.639 7.73989 40.639C10.4692 40.639 12.5689 42.6071 15.6641 42.6071C16.9365 42.6071 18.5736 42.16 20.3962 41.176L31.2313 35.002L20.3962 28.8227C18.5736 27.8386 16.9365 27.3929 15.6641 27.3929C12.4801 27.3929 10.4692 29.361 7.73989 29.361C6.65302 29.361 5.47065 29.0026 4.10131 28.1971C1.19313 26.5888 0 24.1697 0 21.7519C0 20.3222 0.46407 18.7086 1.19313 17.5446C2.55306 15.1308 4.91915 13.4299 7.83673 13.4299C9.19801 13.4299 10.5674 13.7884 12.0174 14.5925C18.7592 18.3501 12.9334 23.7239 20.7608 28.1971L31.5958 34.3724V22.0231C31.5958 13.0715 24.0348 15.3107 24.0348 7.78895C24.0348 2.59764 27.9478 0 32.0491 0C36.0522 0 39.9652 2.59764 39.9652 7.78895C39.9652 15.3107 32.415 13.0715 32.415 22.0231V34.3724L43.2473 28.1971C51.076 23.7239 45.3377 18.3501 51.9826 14.5925C53.4407 13.7884 54.8114 13.4299 56.1727 13.4299C59.0903 13.4299 61.455 15.1308 62.8163 17.5446C63.5453 18.7086 64 20.3222 64 21.7519C64 24.1697 62.8163 26.5888 59.9081 28.1971C58.5374 29.0026 57.2663 29.361 56.2615 29.361C53.5308 29.361 51.4405 27.3929 48.344 27.3929C47.0729 27.3929 45.4264 27.8386 43.6132 28.8227L32.7782 35.002L43.6132 41.176C45.4264 42.16 47.0729 42.6071 48.344 42.6071C51.5293 42.6071 53.5308 40.639 56.2615 40.639C57.3564 40.639 58.5374 40.9974 59.9081 41.8016C62.8163 43.4152 64 45.829 64 48.2481Z" fill="#2E2014"/>
</g>
</svg>
